<svg width="125" height="111" viewBox="0 0 125 111" fill="none" xmlns="http://www.w3.org/2000/svg">
<path d="M85.0595 2.65893C86.6216 1.09684 89.1542 1.09683 90.7163 2.65893L122.996 34.9387C124.558 36.5008 124.558 39.0334 122.996 40.5955L94.7163 68.8752C92.1965 71.3951 87.8879 69.6104 87.8879 66.0468V41.7671C87.8879 39.558 86.097 37.7671 83.8879 37.7671H59.6082C56.0446 37.7671 54.2599 33.4585 56.7797 30.9387L85.0595 2.65893Z" fill="#fff"/>
<path d="M89.474 107.988C87.9119 109.55 85.3792 109.55 83.8171 107.988L51.5374 75.7084C49.9753 74.1463 49.9753 71.6137 51.5374 70.0516L79.8171 41.7718C82.337 39.252 86.6455 41.0366 86.6455 44.6003L86.6455 68.88C86.6455 71.0891 88.4364 72.88 90.6455 72.88H114.925C118.489 72.88 120.274 77.1886 117.754 79.7084L89.474 107.988Z" fill="#fff"/>
<path d="M0 106.83C0 109.04 1.79086 110.83 4 110.83L73.9955 110.83C77.5591 110.83 79.3437 106.522 76.8239 104.002L31.0655 58.2437C29.5034 56.6816 29.5034 54.1489 31.0655 52.5868L76.8239 6.82843C79.3437 4.30857 77.5591 -1.05408e-07 73.9955 0L4 2.0704e-06C1.79086 2.13574e-06 0 1.79086 0 4V106.83Z" fill="#fff"/>
</svg>
