<svg width="178" height="178" viewBox="0 0 178 178" fill="none" xmlns="http://www.w3.org/2000/svg">
<g opacity="0.32">
<path d="M11.125 5.5625C11.125 8.63458 8.63458 11.125 5.5625 11.125C2.49042 11.125 0 8.63458 0 5.5625C0 2.49042 2.49042 0 5.5625 0C8.63458 0 11.125 2.49042 11.125 5.5625Z" fill="#E99AEB"/>
<path d="M11.125 100.92C11.125 103.992 8.63458 106.482 5.5625 106.482C2.49042 106.482 0 103.992 0 100.92C0 97.8476 2.49042 95.3571 5.5625 95.3571C8.63458 95.3571 11.125 97.8476 11.125 100.92Z" fill="#E99AEB"/>
<path d="M11.125 53.2411C11.125 56.3132 8.63458 58.8036 5.5625 58.8036C2.49042 58.8036 0 56.3132 0 53.2411C0 50.169 2.49042 47.6786 5.5625 47.6786C8.63458 47.6786 11.125 50.169 11.125 53.2411Z" fill="#E99AEB"/>
<path d="M11.125 148.598C11.125 151.67 8.63458 154.161 5.5625 154.161C2.49042 154.161 0 151.67 0 148.598C0 145.526 2.49042 143.036 5.5625 143.036C8.63458 143.036 11.125 145.526 11.125 148.598Z" fill="#E99AEB"/>
<path d="M11.125 29.4018C11.125 32.4739 8.63458 34.9643 5.5625 34.9643C2.49042 34.9643 0 32.4739 0 29.4018C0 26.3297 2.49042 23.8393 5.5625 23.8393C8.63458 23.8393 11.125 26.3297 11.125 29.4018Z" fill="#E99AEB"/>
<path d="M11.125 124.759C11.125 127.831 8.63458 130.321 5.5625 130.321C2.49042 130.321 0 127.831 0 124.759C0 121.687 2.49042 119.196 5.5625 119.196C8.63458 119.196 11.125 121.687 11.125 124.759Z" fill="#E99AEB"/>
<path d="M11.125 77.0804C11.125 80.1524 8.63458 82.6429 5.5625 82.6429C2.49042 82.6429 0 80.1524 0 77.0804C0 74.0083 2.49042 71.5179 5.5625 71.5179C8.63458 71.5179 11.125 74.0083 11.125 77.0804Z" fill="#E99AEB"/>
<path d="M11.125 172.438C11.125 175.51 8.63458 178 5.5625 178C2.49042 178 0 175.51 0 172.438C0 169.365 2.49042 166.875 5.5625 166.875C8.63458 166.875 11.125 169.365 11.125 172.438Z" fill="#E99AEB"/>
<path d="M106.482 5.5625C106.482 8.63458 103.992 11.125 100.92 11.125C97.8476 11.125 95.3571 8.63458 95.3571 5.5625C95.3571 2.49042 97.8476 0 100.92 0C103.992 0 106.482 2.49042 106.482 5.5625Z" fill="#E99AEB"/>
<path d="M106.482 100.92C106.482 103.992 103.992 106.482 100.92 106.482C97.8476 106.482 95.3571 103.992 95.3571 100.92C95.3571 97.8476 97.8476 95.3571 100.92 95.3571C103.992 95.3571 106.482 97.8476 106.482 100.92Z" fill="#E99AEB"/>
<path d="M106.482 53.2411C106.482 56.3132 103.992 58.8036 100.92 58.8036C97.8476 58.8036 95.3571 56.3132 95.3571 53.2411C95.3571 50.169 97.8476 47.6786 100.92 47.6786C103.992 47.6786 106.482 50.169 106.482 53.2411Z" fill="#E99AEB"/>
<path d="M106.482 148.598C106.482 151.67 103.992 154.161 100.92 154.161C97.8476 154.161 95.3571 151.67 95.3571 148.598C95.3571 145.526 97.8476 143.036 100.92 143.036C103.992 143.036 106.482 145.526 106.482 148.598Z" fill="#E99AEB"/>
<path d="M106.482 29.4018C106.482 32.4739 103.992 34.9643 100.92 34.9643C97.8476 34.9643 95.3571 32.4739 95.3571 29.4018C95.3571 26.3297 97.8476 23.8393 100.92 23.8393C103.992 23.8393 106.482 26.3297 106.482 29.4018Z" fill="#E99AEB"/>
<path d="M106.482 124.759C106.482 127.831 103.992 130.321 100.92 130.321C97.8476 130.321 95.3571 127.831 95.3571 124.759C95.3571 121.687 97.8476 119.196 100.92 119.196C103.992 119.196 106.482 121.687 106.482 124.759Z" fill="#E99AEB"/>
<path d="M106.482 77.0804C106.482 80.1524 103.992 82.6429 100.92 82.6429C97.8476 82.6429 95.3571 80.1524 95.3571 77.0804C95.3571 74.0083 97.8476 71.5179 100.92 71.5179C103.992 71.5179 106.482 74.0083 106.482 77.0804Z" fill="#E99AEB"/>
<path d="M106.482 172.438C106.482 175.51 103.992 178 100.92 178C97.8476 178 95.3571 175.51 95.3571 172.438C95.3571 169.365 97.8476 166.875 100.92 166.875C103.992 166.875 106.482 169.365 106.482 172.438Z" fill="#E99AEB"/>
<path d="M34.9643 5.5625C34.9643 8.63458 32.4739 11.125 29.4018 11.125C26.3297 11.125 23.8393 8.63458 23.8393 5.5625C23.8393 2.49042 26.3297 0 29.4018 0C32.4739 0 34.9643 2.49042 34.9643 5.5625Z" fill="#E99AEB"/>
<path d="M34.9643 100.92C34.9643 103.992 32.4739 106.482 29.4018 106.482C26.3297 106.482 23.8393 103.992 23.8393 100.92C23.8393 97.8476 26.3297 95.3571 29.4018 95.3571C32.4739 95.3571 34.9643 97.8476 34.9643 100.92Z" fill="#E99AEB"/>
<path d="M34.9643 53.2411C34.9643 56.3132 32.4739 58.8036 29.4018 58.8036C26.3297 58.8036 23.8393 56.3132 23.8393 53.2411C23.8393 50.169 26.3297 47.6786 29.4018 47.6786C32.4739 47.6786 34.9643 50.169 34.9643 53.2411Z" fill="#E99AEB"/>
<path d="M34.9643 148.598C34.9643 151.67 32.4739 154.161 29.4018 154.161C26.3297 154.161 23.8393 151.67 23.8393 148.598C23.8393 145.526 26.3297 143.036 29.4018 143.036C32.4739 143.036 34.9643 145.526 34.9643 148.598Z" fill="#E99AEB"/>
<path d="M34.9643 29.4018C34.9643 32.4739 32.4739 34.9643 29.4018 34.9643C26.3297 34.9643 23.8393 32.4739 23.8393 29.4018C23.8393 26.3297 26.3297 23.8393 29.4018 23.8393C32.4739 23.8393 34.9643 26.3297 34.9643 29.4018Z" fill="#E99AEB"/>
<path d="M34.9643 124.759C34.9643 127.831 32.4739 130.321 29.4018 130.321C26.3297 130.321 23.8393 127.831 23.8393 124.759C23.8393 121.687 26.3297 119.196 29.4018 119.196C32.4739 119.196 34.9643 121.687 34.9643 124.759Z" fill="#E99AEB"/>
<path d="M34.9643 77.0804C34.9643 80.1524 32.4739 82.6429 29.4018 82.6429C26.3297 82.6429 23.8393 80.1524 23.8393 77.0804C23.8393 74.0083 26.3297 71.5179 29.4018 71.5179C32.4739 71.5179 34.9643 74.0083 34.9643 77.0804Z" fill="#E99AEB"/>
<path d="M34.9643 172.438C34.9643 175.51 32.4739 178 29.4018 178C26.3297 178 23.8393 175.51 23.8393 172.438C23.8393 169.365 26.3297 166.875 29.4018 166.875C32.4739 166.875 34.9643 169.365 34.9643 172.438Z" fill="#E99AEB"/>
<path d="M130.321 5.5625C130.321 8.63458 127.831 11.125 124.759 11.125C121.687 11.125 119.196 8.63458 119.196 5.5625C119.196 2.49042 121.687 0 124.759 0C127.831 0 130.321 2.49042 130.321 5.5625Z" fill="#E99AEB"/>
<path d="M130.321 100.92C130.321 103.992 127.831 106.482 124.759 106.482C121.687 106.482 119.196 103.992 119.196 100.92C119.196 97.8476 121.687 95.3571 124.759 95.3571C127.831 95.3571 130.321 97.8476 130.321 100.92Z" fill="#E99AEB"/>
<path d="M130.321 53.2411C130.321 56.3132 127.831 58.8036 124.759 58.8036C121.687 58.8036 119.196 56.3132 119.196 53.2411C119.196 50.169 121.687 47.6786 124.759 47.6786C127.831 47.6786 130.321 50.169 130.321 53.2411Z" fill="#E99AEB"/>
<path d="M130.321 148.598C130.321 151.67 127.831 154.161 124.759 154.161C121.687 154.161 119.196 151.67 119.196 148.598C119.196 145.526 121.687 143.036 124.759 143.036C127.831 143.036 130.321 145.526 130.321 148.598Z" fill="#E99AEB"/>
<path d="M130.321 29.4018C130.321 32.4739 127.831 34.9643 124.759 34.9643C121.687 34.9643 119.196 32.4739 119.196 29.4018C119.196 26.3297 121.687 23.8393 124.759 23.8393C127.831 23.8393 130.321 26.3297 130.321 29.4018Z" fill="#E99AEB"/>
<path d="M130.321 124.759C130.321 127.831 127.831 130.321 124.759 130.321C121.687 130.321 119.196 127.831 119.196 124.759C119.196 121.687 121.687 119.196 124.759 119.196C127.831 119.196 130.321 121.687 130.321 124.759Z" fill="#E99AEB"/>
<path d="M130.321 77.0804C130.321 80.1524 127.831 82.6429 124.759 82.6429C121.687 82.6429 119.196 80.1524 119.196 77.0804C119.196 74.0083 121.687 71.5179 124.759 71.5179C127.831 71.5179 130.321 74.0083 130.321 77.0804Z" fill="#E99AEB"/>
<path d="M130.321 172.438C130.321 175.51 127.831 178 124.759 178C121.687 178 119.196 175.51 119.196 172.438C119.196 169.365 121.687 166.875 124.759 166.875C127.831 166.875 130.321 169.365 130.321 172.438Z" fill="#E99AEB"/>
<path d="M58.8036 5.5625C58.8036 8.63458 56.3132 11.125 53.2411 11.125C50.169 11.125 47.6786 8.63458 47.6786 5.5625C47.6786 2.49042 50.169 0 53.2411 0C56.3132 0 58.8036 2.49042 58.8036 5.5625Z" fill="#E99AEB"/>
<path d="M58.8036 100.92C58.8036 103.992 56.3132 106.482 53.2411 106.482C50.169 106.482 47.6786 103.992 47.6786 100.92C47.6786 97.8476 50.169 95.3571 53.2411 95.3571C56.3132 95.3571 58.8036 97.8476 58.8036 100.92Z" fill="#E99AEB"/>
<path d="M58.8036 53.2411C58.8036 56.3132 56.3132 58.8036 53.2411 58.8036C50.169 58.8036 47.6786 56.3132 47.6786 53.2411C47.6786 50.169 50.169 47.6786 53.2411 47.6786C56.3132 47.6786 58.8036 50.169 58.8036 53.2411Z" fill="#E99AEB"/>
<path d="M58.8036 148.598C58.8036 151.67 56.3132 154.161 53.2411 154.161C50.169 154.161 47.6786 151.67 47.6786 148.598C47.6786 145.526 50.169 143.036 53.2411 143.036C56.3132 143.036 58.8036 145.526 58.8036 148.598Z" fill="#E99AEB"/>
<path d="M58.8036 29.4018C58.8036 32.4739 56.3132 34.9643 53.2411 34.9643C50.169 34.9643 47.6786 32.4739 47.6786 29.4018C47.6786 26.3297 50.169 23.8393 53.2411 23.8393C56.3132 23.8393 58.8036 26.3297 58.8036 29.4018Z" fill="#E99AEB"/>
<path d="M58.8036 124.759C58.8036 127.831 56.3132 130.321 53.2411 130.321C50.169 130.321 47.6786 127.831 47.6786 124.759C47.6786 121.687 50.169 119.196 53.2411 119.196C56.3132 119.196 58.8036 121.687 58.8036 124.759Z" fill="#E99AEB"/>
<path d="M58.8036 77.0804C58.8036 80.1524 56.3132 82.6429 53.2411 82.6429C50.169 82.6429 47.6786 80.1524 47.6786 77.0804C47.6786 74.0083 50.169 71.5179 53.2411 71.5179C56.3132 71.5179 58.8036 74.0083 58.8036 77.0804Z" fill="#E99AEB"/>
<path d="M58.8036 172.438C58.8036 175.51 56.3132 178 53.2411 178C50.169 178 47.6786 175.51 47.6786 172.438C47.6786 169.365 50.169 166.875 53.2411 166.875C56.3132 166.875 58.8036 169.365 58.8036 172.438Z" fill="#E99AEB"/>
<path d="M154.161 5.5625C154.161 8.63458 151.67 11.125 148.598 11.125C145.526 11.125 143.036 8.63458 143.036 5.5625C143.036 2.49042 145.526 0 148.598 0C151.67 0 154.161 2.49042 154.161 5.5625Z" fill="#E99AEB"/>
<path d="M154.161 100.92C154.161 103.992 151.67 106.482 148.598 106.482C145.526 106.482 143.036 103.992 143.036 100.92C143.036 97.8476 145.526 95.3571 148.598 95.3571C151.67 95.3571 154.161 97.8476 154.161 100.92Z" fill="#E99AEB"/>
<path d="M154.161 53.2411C154.161 56.3132 151.67 58.8036 148.598 58.8036C145.526 58.8036 143.036 56.3132 143.036 53.2411C143.036 50.169 145.526 47.6786 148.598 47.6786C151.67 47.6786 154.161 50.169 154.161 53.2411Z" fill="#E99AEB"/>
<path d="M154.161 148.598C154.161 151.67 151.67 154.161 148.598 154.161C145.526 154.161 143.036 151.67 143.036 148.598C143.036 145.526 145.526 143.036 148.598 143.036C151.67 143.036 154.161 145.526 154.161 148.598Z" fill="#E99AEB"/>
<path d="M154.161 29.4018C154.161 32.4739 151.67 34.9643 148.598 34.9643C145.526 34.9643 143.036 32.4739 143.036 29.4018C143.036 26.3297 145.526 23.8393 148.598 23.8393C151.67 23.8393 154.161 26.3297 154.161 29.4018Z" fill="#E99AEB"/>
<path d="M154.161 124.759C154.161 127.831 151.67 130.321 148.598 130.321C145.526 130.321 143.036 127.831 143.036 124.759C143.036 121.687 145.526 119.196 148.598 119.196C151.67 119.196 154.161 121.687 154.161 124.759Z" fill="#E99AEB"/>
<path d="M154.161 77.0804C154.161 80.1524 151.67 82.6429 148.598 82.6429C145.526 82.6429 143.036 80.1524 143.036 77.0804C143.036 74.0083 145.526 71.5179 148.598 71.5179C151.67 71.5179 154.161 74.0083 154.161 77.0804Z" fill="#E99AEB"/>
<path d="M154.161 172.438C154.161 175.51 151.67 178 148.598 178C145.526 178 143.036 175.51 143.036 172.438C143.036 169.365 145.526 166.875 148.598 166.875C151.67 166.875 154.161 169.365 154.161 172.438Z" fill="#E99AEB"/>
<path d="M82.6429 5.5625C82.6429 8.63458 80.1524 11.125 77.0804 11.125C74.0083 11.125 71.5179 8.63458 71.5179 5.5625C71.5179 2.49042 74.0083 0 77.0804 0C80.1524 0 82.6429 2.49042 82.6429 5.5625Z" fill="#E99AEB"/>
<path d="M82.6429 100.92C82.6429 103.992 80.1524 106.482 77.0804 106.482C74.0083 106.482 71.5179 103.992 71.5179 100.92C71.5179 97.8476 74.0083 95.3571 77.0804 95.3571C80.1524 95.3571 82.6429 97.8476 82.6429 100.92Z" fill="#E99AEB"/>
<path d="M82.6429 53.2411C82.6429 56.3132 80.1524 58.8036 77.0804 58.8036C74.0083 58.8036 71.5179 56.3132 71.5179 53.2411C71.5179 50.169 74.0083 47.6786 77.0804 47.6786C80.1524 47.6786 82.6429 50.169 82.6429 53.2411Z" fill="#E99AEB"/>
<path d="M82.6429 148.598C82.6429 151.67 80.1524 154.161 77.0804 154.161C74.0083 154.161 71.5179 151.67 71.5179 148.598C71.5179 145.526 74.0083 143.036 77.0804 143.036C80.1524 143.036 82.6429 145.526 82.6429 148.598Z" fill="#E99AEB"/>
<path d="M82.6429 29.4018C82.6429 32.4739 80.1524 34.9643 77.0804 34.9643C74.0083 34.9643 71.5179 32.4739 71.5179 29.4018C71.5179 26.3297 74.0083 23.8393 77.0804 23.8393C80.1524 23.8393 82.6429 26.3297 82.6429 29.4018Z" fill="#E99AEB"/>
<path d="M82.6429 124.759C82.6429 127.831 80.1524 130.321 77.0804 130.321C74.0083 130.321 71.5179 127.831 71.5179 124.759C71.5179 121.687 74.0083 119.196 77.0804 119.196C80.1524 119.196 82.6429 121.687 82.6429 124.759Z" fill="#E99AEB"/>
<path d="M82.6429 77.0804C82.6429 80.1524 80.1524 82.6429 77.0804 82.6429C74.0083 82.6429 71.5179 80.1524 71.5179 77.0804C71.5179 74.0083 74.0083 71.5179 77.0804 71.5179C80.1524 71.5179 82.6429 74.0083 82.6429 77.0804Z" fill="#E99AEB"/>
<path d="M82.6429 172.438C82.6429 175.51 80.1524 178 77.0804 178C74.0083 178 71.5179 175.51 71.5179 172.438C71.5179 169.365 74.0083 166.875 77.0804 166.875C80.1524 166.875 82.6429 169.365 82.6429 172.438Z" fill="#E99AEB"/>
<path d="M178 5.5625C178 8.63458 175.51 11.125 172.438 11.125C169.365 11.125 166.875 8.63458 166.875 5.5625C166.875 2.49042 169.365 0 172.438 0C175.51 0 178 2.49042 178 5.5625Z" fill="#E99AEB"/>
<path d="M178 100.92C178 103.992 175.51 106.482 172.438 106.482C169.365 106.482 166.875 103.992 166.875 100.92C166.875 97.8476 169.365 95.3571 172.438 95.3571C175.51 95.3571 178 97.8476 178 100.92Z" fill="#E99AEB"/>
<path d="M178 53.2411C178 56.3132 175.51 58.8036 172.438 58.8036C169.365 58.8036 166.875 56.3132 166.875 53.2411C166.875 50.169 169.365 47.6786 172.438 47.6786C175.51 47.6786 178 50.169 178 53.2411Z" fill="#E99AEB"/>
<path d="M178 148.598C178 151.67 175.51 154.161 172.438 154.161C169.365 154.161 166.875 151.67 166.875 148.598C166.875 145.526 169.365 143.036 172.438 143.036C175.51 143.036 178 145.526 178 148.598Z" fill="#E99AEB"/>
<path d="M178 29.4018C178 32.4739 175.51 34.9643 172.438 34.9643C169.365 34.9643 166.875 32.4739 166.875 29.4018C166.875 26.3297 169.365 23.8393 172.438 23.8393C175.51 23.8393 178 26.3297 178 29.4018Z" fill="#E99AEB"/>
<path d="M178 124.759C178 127.831 175.51 130.321 172.438 130.321C169.365 130.321 166.875 127.831 166.875 124.759C166.875 121.687 169.365 119.196 172.438 119.196C175.51 119.196 178 121.687 178 124.759Z" fill="#E99AEB"/>
<path d="M178 77.0804C178 80.1524 175.51 82.6429 172.438 82.6429C169.365 82.6429 166.875 80.1524 166.875 77.0804C166.875 74.0083 169.365 71.5179 172.438 71.5179C175.51 71.5179 178 74.0083 178 77.0804Z" fill="#E99AEB"/>
<path d="M178 172.438C178 175.51 175.51 178 172.438 178C169.365 178 166.875 175.51 166.875 172.438C166.875 169.365 169.365 166.875 172.438 166.875C175.51 166.875 178 169.365 178 172.438Z" fill="#E99AEB"/>
</g>
</svg>
