<svg width="248" height="248" viewBox="0 0 248 248" fill="none" xmlns="http://www.w3.org/2000/svg">
<g opacity="0.6">
<path d="M15.5 7.75C15.5 12.0302 12.0302 15.5 7.75 15.5C3.46979 15.5 0 12.0302 0 7.75C0 3.46979 3.46979 0 7.75 0C12.0302 0 15.5 3.46979 15.5 7.75Z" fill="#C4C4C4"/>
<path d="M15.5 140.607C15.5 144.887 12.0302 148.357 7.75 148.357C3.46979 148.357 0 144.887 0 140.607C0 136.327 3.46979 132.857 7.75 132.857C12.0302 132.857 15.5 136.327 15.5 140.607Z" fill="#C4C4C4"/>
<path d="M15.5 74.1786C15.5 78.4588 12.0302 81.9286 7.75 81.9286C3.46979 81.9286 0 78.4588 0 74.1786C0 69.8984 3.46979 66.4286 7.75 66.4286C12.0302 66.4286 15.5 69.8984 15.5 74.1786Z" fill="#C4C4C4"/>
<path d="M15.5 207.036C15.5 211.316 12.0302 214.786 7.75 214.786C3.46979 214.786 0 211.316 0 207.036C0 202.755 3.46979 199.286 7.75 199.286C12.0302 199.286 15.5 202.755 15.5 207.036Z" fill="#C4C4C4"/>
<path d="M15.5 40.9643C15.5 45.2445 12.0302 48.7143 7.75 48.7143C3.46979 48.7143 0 45.2445 0 40.9643C0 36.6841 3.46979 33.2143 7.75 33.2143C12.0302 33.2143 15.5 36.6841 15.5 40.9643Z" fill="#C4C4C4"/>
<path d="M15.5 173.821C15.5 178.102 12.0302 181.571 7.75 181.571C3.46979 181.571 0 178.102 0 173.821C0 169.541 3.46979 166.071 7.75 166.071C12.0302 166.071 15.5 169.541 15.5 173.821Z" fill="#C4C4C4"/>
<path d="M15.5 107.393C15.5 111.673 12.0302 115.143 7.75 115.143C3.46979 115.143 0 111.673 0 107.393C0 103.113 3.46979 99.6429 7.75 99.6429C12.0302 99.6429 15.5 103.113 15.5 107.393Z" fill="#C4C4C4"/>
<path d="M15.5 240.25C15.5 244.53 12.0302 248 7.75 248C3.46979 248 0 244.53 0 240.25C0 235.97 3.46979 232.5 7.75 232.5C12.0302 232.5 15.5 235.97 15.5 240.25Z" fill="#C4C4C4"/>
<path d="M148.357 7.75C148.357 12.0302 144.887 15.5 140.607 15.5C136.327 15.5 132.857 12.0302 132.857 7.75C132.857 3.46979 136.327 0 140.607 0C144.887 0 148.357 3.46979 148.357 7.75Z" fill="#C4C4C4"/>
<path d="M148.357 140.607C148.357 144.887 144.887 148.357 140.607 148.357C136.327 148.357 132.857 144.887 132.857 140.607C132.857 136.327 136.327 132.857 140.607 132.857C144.887 132.857 148.357 136.327 148.357 140.607Z" fill="#C4C4C4"/>
<path d="M148.357 74.1786C148.357 78.4588 144.887 81.9286 140.607 81.9286C136.327 81.9286 132.857 78.4588 132.857 74.1786C132.857 69.8984 136.327 66.4286 140.607 66.4286C144.887 66.4286 148.357 69.8984 148.357 74.1786Z" fill="#C4C4C4"/>
<path d="M148.357 207.036C148.357 211.316 144.887 214.786 140.607 214.786C136.327 214.786 132.857 211.316 132.857 207.036C132.857 202.755 136.327 199.286 140.607 199.286C144.887 199.286 148.357 202.755 148.357 207.036Z" fill="#C4C4C4"/>
<path d="M148.357 40.9643C148.357 45.2445 144.887 48.7143 140.607 48.7143C136.327 48.7143 132.857 45.2445 132.857 40.9643C132.857 36.6841 136.327 33.2143 140.607 33.2143C144.887 33.2143 148.357 36.6841 148.357 40.9643Z" fill="#C4C4C4"/>
<path d="M148.357 173.821C148.357 178.102 144.887 181.571 140.607 181.571C136.327 181.571 132.857 178.102 132.857 173.821C132.857 169.541 136.327 166.071 140.607 166.071C144.887 166.071 148.357 169.541 148.357 173.821Z" fill="#C4C4C4"/>
<path d="M148.357 107.393C148.357 111.673 144.887 115.143 140.607 115.143C136.327 115.143 132.857 111.673 132.857 107.393C132.857 103.113 136.327 99.6429 140.607 99.6429C144.887 99.6429 148.357 103.113 148.357 107.393Z" fill="#C4C4C4"/>
<path d="M148.357 240.25C148.357 244.53 144.887 248 140.607 248C136.327 248 132.857 244.53 132.857 240.25C132.857 235.97 136.327 232.5 140.607 232.5C144.887 232.5 148.357 235.97 148.357 240.25Z" fill="#C4C4C4"/>
<path d="M48.7143 7.75C48.7143 12.0302 45.2445 15.5 40.9643 15.5C36.6841 15.5 33.2143 12.0302 33.2143 7.75C33.2143 3.46979 36.6841 0 40.9643 0C45.2445 0 48.7143 3.46979 48.7143 7.75Z" fill="#C4C4C4"/>
<path d="M48.7143 140.607C48.7143 144.887 45.2445 148.357 40.9643 148.357C36.6841 148.357 33.2143 144.887 33.2143 140.607C33.2143 136.327 36.6841 132.857 40.9643 132.857C45.2445 132.857 48.7143 136.327 48.7143 140.607Z" fill="#C4C4C4"/>
<path d="M48.7143 74.1786C48.7143 78.4588 45.2445 81.9286 40.9643 81.9286C36.6841 81.9286 33.2143 78.4588 33.2143 74.1786C33.2143 69.8984 36.6841 66.4286 40.9643 66.4286C45.2445 66.4286 48.7143 69.8984 48.7143 74.1786Z" fill="#C4C4C4"/>
<path d="M48.7143 207.036C48.7143 211.316 45.2445 214.786 40.9643 214.786C36.6841 214.786 33.2143 211.316 33.2143 207.036C33.2143 202.755 36.6841 199.286 40.9643 199.286C45.2445 199.286 48.7143 202.755 48.7143 207.036Z" fill="#C4C4C4"/>
<path d="M48.7143 40.9643C48.7143 45.2445 45.2445 48.7143 40.9643 48.7143C36.6841 48.7143 33.2143 45.2445 33.2143 40.9643C33.2143 36.6841 36.6841 33.2143 40.9643 33.2143C45.2445 33.2143 48.7143 36.6841 48.7143 40.9643Z" fill="#C4C4C4"/>
<path d="M48.7143 173.821C48.7143 178.102 45.2445 181.571 40.9643 181.571C36.6841 181.571 33.2143 178.102 33.2143 173.821C33.2143 169.541 36.6841 166.071 40.9643 166.071C45.2445 166.071 48.7143 169.541 48.7143 173.821Z" fill="#C4C4C4"/>
<path d="M48.7143 107.393C48.7143 111.673 45.2445 115.143 40.9643 115.143C36.6841 115.143 33.2143 111.673 33.2143 107.393C33.2143 103.113 36.6841 99.6429 40.9643 99.6429C45.2445 99.6429 48.7143 103.113 48.7143 107.393Z" fill="#C4C4C4"/>
<path d="M48.7143 240.25C48.7143 244.53 45.2445 248 40.9643 248C36.6841 248 33.2143 244.53 33.2143 240.25C33.2143 235.97 36.6841 232.5 40.9643 232.5C45.2445 232.5 48.7143 235.97 48.7143 240.25Z" fill="#C4C4C4"/>
<path d="M181.571 7.75C181.571 12.0302 178.102 15.5 173.821 15.5C169.541 15.5 166.071 12.0302 166.071 7.75C166.071 3.46979 169.541 0 173.821 0C178.102 0 181.571 3.46979 181.571 7.75Z" fill="#C4C4C4"/>
<path d="M181.571 140.607C181.571 144.887 178.102 148.357 173.821 148.357C169.541 148.357 166.071 144.887 166.071 140.607C166.071 136.327 169.541 132.857 173.821 132.857C178.102 132.857 181.571 136.327 181.571 140.607Z" fill="#C4C4C4"/>
<path d="M181.571 74.1786C181.571 78.4588 178.102 81.9286 173.821 81.9286C169.541 81.9286 166.071 78.4588 166.071 74.1786C166.071 69.8984 169.541 66.4286 173.821 66.4286C178.102 66.4286 181.571 69.8984 181.571 74.1786Z" fill="#C4C4C4"/>
<path d="M181.571 207.036C181.571 211.316 178.102 214.786 173.821 214.786C169.541 214.786 166.071 211.316 166.071 207.036C166.071 202.755 169.541 199.286 173.821 199.286C178.102 199.286 181.571 202.755 181.571 207.036Z" fill="#C4C4C4"/>
<path d="M181.571 40.9643C181.571 45.2445 178.102 48.7143 173.821 48.7143C169.541 48.7143 166.071 45.2445 166.071 40.9643C166.071 36.6841 169.541 33.2143 173.821 33.2143C178.102 33.2143 181.571 36.6841 181.571 40.9643Z" fill="#C4C4C4"/>
<path d="M181.571 173.821C181.571 178.102 178.102 181.571 173.821 181.571C169.541 181.571 166.071 178.102 166.071 173.821C166.071 169.541 169.541 166.071 173.821 166.071C178.102 166.071 181.571 169.541 181.571 173.821Z" fill="#C4C4C4"/>
<path d="M181.571 107.393C181.571 111.673 178.102 115.143 173.821 115.143C169.541 115.143 166.071 111.673 166.071 107.393C166.071 103.113 169.541 99.6429 173.821 99.6429C178.102 99.6429 181.571 103.113 181.571 107.393Z" fill="#C4C4C4"/>
<path d="M181.571 240.25C181.571 244.53 178.102 248 173.821 248C169.541 248 166.071 244.53 166.071 240.25C166.071 235.97 169.541 232.5 173.821 232.5C178.102 232.5 181.571 235.97 181.571 240.25Z" fill="#C4C4C4"/>
<path d="M81.9286 7.75C81.9286 12.0302 78.4588 15.5 74.1786 15.5C69.8984 15.5 66.4286 12.0302 66.4286 7.75C66.4286 3.46979 69.8984 0 74.1786 0C78.4588 0 81.9286 3.46979 81.9286 7.75Z" fill="#C4C4C4"/>
<path d="M81.9286 140.607C81.9286 144.887 78.4588 148.357 74.1786 148.357C69.8984 148.357 66.4286 144.887 66.4286 140.607C66.4286 136.327 69.8984 132.857 74.1786 132.857C78.4588 132.857 81.9286 136.327 81.9286 140.607Z" fill="#C4C4C4"/>
<path d="M81.9286 74.1786C81.9286 78.4588 78.4588 81.9286 74.1786 81.9286C69.8984 81.9286 66.4286 78.4588 66.4286 74.1786C66.4286 69.8984 69.8984 66.4286 74.1786 66.4286C78.4588 66.4286 81.9286 69.8984 81.9286 74.1786Z" fill="#C4C4C4"/>
<path d="M81.9286 207.036C81.9286 211.316 78.4588 214.786 74.1786 214.786C69.8984 214.786 66.4286 211.316 66.4286 207.036C66.4286 202.755 69.8984 199.286 74.1786 199.286C78.4588 199.286 81.9286 202.755 81.9286 207.036Z" fill="#C4C4C4"/>
<path d="M81.9286 40.9643C81.9286 45.2445 78.4588 48.7143 74.1786 48.7143C69.8984 48.7143 66.4286 45.2445 66.4286 40.9643C66.4286 36.6841 69.8984 33.2143 74.1786 33.2143C78.4588 33.2143 81.9286 36.6841 81.9286 40.9643Z" fill="#C4C4C4"/>
<path d="M81.9286 173.821C81.9286 178.102 78.4588 181.571 74.1786 181.571C69.8984 181.571 66.4286 178.102 66.4286 173.821C66.4286 169.541 69.8984 166.071 74.1786 166.071C78.4588 166.071 81.9286 169.541 81.9286 173.821Z" fill="#C4C4C4"/>
<path d="M81.9286 107.393C81.9286 111.673 78.4588 115.143 74.1786 115.143C69.8984 115.143 66.4286 111.673 66.4286 107.393C66.4286 103.113 69.8984 99.6429 74.1786 99.6429C78.4588 99.6429 81.9286 103.113 81.9286 107.393Z" fill="#C4C4C4"/>
<path d="M81.9286 240.25C81.9286 244.53 78.4588 248 74.1786 248C69.8984 248 66.4286 244.53 66.4286 240.25C66.4286 235.97 69.8984 232.5 74.1786 232.5C78.4588 232.5 81.9286 235.97 81.9286 240.25Z" fill="#C4C4C4"/>
<path d="M214.786 7.75C214.786 12.0302 211.316 15.5 207.036 15.5C202.755 15.5 199.286 12.0302 199.286 7.75C199.286 3.46979 202.755 0 207.036 0C211.316 0 214.786 3.46979 214.786 7.75Z" fill="#C4C4C4"/>
<path d="M214.786 140.607C214.786 144.887 211.316 148.357 207.036 148.357C202.755 148.357 199.286 144.887 199.286 140.607C199.286 136.327 202.755 132.857 207.036 132.857C211.316 132.857 214.786 136.327 214.786 140.607Z" fill="#C4C4C4"/>
<path d="M214.786 74.1786C214.786 78.4588 211.316 81.9286 207.036 81.9286C202.755 81.9286 199.286 78.4588 199.286 74.1786C199.286 69.8984 202.755 66.4286 207.036 66.4286C211.316 66.4286 214.786 69.8984 214.786 74.1786Z" fill="#C4C4C4"/>
<path d="M214.786 207.036C214.786 211.316 211.316 214.786 207.036 214.786C202.755 214.786 199.286 211.316 199.286 207.036C199.286 202.755 202.755 199.286 207.036 199.286C211.316 199.286 214.786 202.755 214.786 207.036Z" fill="#C4C4C4"/>
<path d="M214.786 40.9643C214.786 45.2445 211.316 48.7143 207.036 48.7143C202.755 48.7143 199.286 45.2445 199.286 40.9643C199.286 36.6841 202.755 33.2143 207.036 33.2143C211.316 33.2143 214.786 36.6841 214.786 40.9643Z" fill="#C4C4C4"/>
<path d="M214.786 173.821C214.786 178.102 211.316 181.571 207.036 181.571C202.755 181.571 199.286 178.102 199.286 173.821C199.286 169.541 202.755 166.071 207.036 166.071C211.316 166.071 214.786 169.541 214.786 173.821Z" fill="#C4C4C4"/>
<path d="M214.786 107.393C214.786 111.673 211.316 115.143 207.036 115.143C202.755 115.143 199.286 111.673 199.286 107.393C199.286 103.113 202.755 99.6429 207.036 99.6429C211.316 99.6429 214.786 103.113 214.786 107.393Z" fill="#C4C4C4"/>
<path d="M214.786 240.25C214.786 244.53 211.316 248 207.036 248C202.755 248 199.286 244.53 199.286 240.25C199.286 235.97 202.755 232.5 207.036 232.5C211.316 232.5 214.786 235.97 214.786 240.25Z" fill="#C4C4C4"/>
<path d="M115.143 7.75C115.143 12.0302 111.673 15.5 107.393 15.5C103.113 15.5 99.6429 12.0302 99.6429 7.75C99.6429 3.46979 103.113 0 107.393 0C111.673 0 115.143 3.46979 115.143 7.75Z" fill="#C4C4C4"/>
<path d="M115.143 140.607C115.143 144.887 111.673 148.357 107.393 148.357C103.113 148.357 99.6429 144.887 99.6429 140.607C99.6429 136.327 103.113 132.857 107.393 132.857C111.673 132.857 115.143 136.327 115.143 140.607Z" fill="#C4C4C4"/>
<path d="M115.143 74.1786C115.143 78.4588 111.673 81.9286 107.393 81.9286C103.113 81.9286 99.6429 78.4588 99.6429 74.1786C99.6429 69.8984 103.113 66.4286 107.393 66.4286C111.673 66.4286 115.143 69.8984 115.143 74.1786Z" fill="#C4C4C4"/>
<path d="M115.143 207.036C115.143 211.316 111.673 214.786 107.393 214.786C103.113 214.786 99.6429 211.316 99.6429 207.036C99.6429 202.755 103.113 199.286 107.393 199.286C111.673 199.286 115.143 202.755 115.143 207.036Z" fill="#C4C4C4"/>
<path d="M115.143 40.9643C115.143 45.2445 111.673 48.7143 107.393 48.7143C103.113 48.7143 99.6429 45.2445 99.6429 40.9643C99.6429 36.6841 103.113 33.2143 107.393 33.2143C111.673 33.2143 115.143 36.6841 115.143 40.9643Z" fill="#C4C4C4"/>
<path d="M115.143 173.821C115.143 178.102 111.673 181.571 107.393 181.571C103.113 181.571 99.6429 178.102 99.6429 173.821C99.6429 169.541 103.113 166.071 107.393 166.071C111.673 166.071 115.143 169.541 115.143 173.821Z" fill="#C4C4C4"/>
<path d="M115.143 107.393C115.143 111.673 111.673 115.143 107.393 115.143C103.113 115.143 99.6429 111.673 99.6429 107.393C99.6429 103.113 103.113 99.6429 107.393 99.6429C111.673 99.6429 115.143 103.113 115.143 107.393Z" fill="#C4C4C4"/>
<path d="M115.143 240.25C115.143 244.53 111.673 248 107.393 248C103.113 248 99.6429 244.53 99.6429 240.25C99.6429 235.97 103.113 232.5 107.393 232.5C111.673 232.5 115.143 235.97 115.143 240.25Z" fill="#C4C4C4"/>
<path d="M248 7.75C248 12.0302 244.53 15.5 240.25 15.5C235.97 15.5 232.5 12.0302 232.5 7.75C232.5 3.46979 235.97 0 240.25 0C244.53 0 248 3.46979 248 7.75Z" fill="#C4C4C4"/>
<path d="M248 140.607C248 144.887 244.53 148.357 240.25 148.357C235.97 148.357 232.5 144.887 232.5 140.607C232.5 136.327 235.97 132.857 240.25 132.857C244.53 132.857 248 136.327 248 140.607Z" fill="#C4C4C4"/>
<path d="M248 74.1786C248 78.4588 244.53 81.9286 240.25 81.9286C235.97 81.9286 232.5 78.4588 232.5 74.1786C232.5 69.8984 235.97 66.4286 240.25 66.4286C244.53 66.4286 248 69.8984 248 74.1786Z" fill="#C4C4C4"/>
<path d="M248 207.036C248 211.316 244.53 214.786 240.25 214.786C235.97 214.786 232.5 211.316 232.5 207.036C232.5 202.755 235.97 199.286 240.25 199.286C244.53 199.286 248 202.755 248 207.036Z" fill="#C4C4C4"/>
<path d="M248 40.9643C248 45.2445 244.53 48.7143 240.25 48.7143C235.97 48.7143 232.5 45.2445 232.5 40.9643C232.5 36.6841 235.97 33.2143 240.25 33.2143C244.53 33.2143 248 36.6841 248 40.9643Z" fill="#C4C4C4"/>
<path d="M248 173.821C248 178.102 244.53 181.571 240.25 181.571C235.97 181.571 232.5 178.102 232.5 173.821C232.5 169.541 235.97 166.071 240.25 166.071C244.53 166.071 248 169.541 248 173.821Z" fill="#C4C4C4"/>
<path d="M248 107.393C248 111.673 244.53 115.143 240.25 115.143C235.97 115.143 232.5 111.673 232.5 107.393C232.5 103.113 235.97 99.6429 240.25 99.6429C244.53 99.6429 248 103.113 248 107.393Z" fill="#C4C4C4"/>
<path d="M248 240.25C248 244.53 244.53 248 240.25 248C235.97 248 232.5 244.53 232.5 240.25C232.5 235.97 235.97 232.5 240.25 232.5C244.53 232.5 248 235.97 248 240.25Z" fill="#C4C4C4"/>
</g>
</svg>
